HIERARCHY
ROOT pelvis
{
	OFFSET 0.003123 -0.351407 0.012037
	CHANNELS 6 Xposition Yposition Zposition Zrotation Yrotation Xrotation 
	JOINT left_hip
	{
		OFFSET 0.058189 -0.092763 -0.026001
		CHANNELS 3 Zrotation Yrotation Xrotation
		JOINT left_knee
		{
			OFFSET 0.054695 -0.378753 -0.009396
			CHANNELS 3 Zrotation Yrotation Xrotation
			JOINT left_ankle
			{
				OFFSET -0.043453 -0.403059 -0.031876
				CHANNELS 3 Zrotation Yrotation Xrotation
				JOINT left_foot
				{
					OFFSET 0.047257 -0.057997 0.118216
					CHANNELS 3 Zrotation Yrotation Xrotation
					End Site
					{
						OFFSET 0.000000 0.000000 0.000000
					}
				}
			}
		}
	}
	JOINT right_hip
	{
		OFFSET -0.063267 -0.103908 -0.021250
		CHANNELS 3 Zrotation Yrotation Xrotation
		JOINT right_knee
		{
			OFFSET -0.044210 -0.362380 -0.016824
			CHANNELS 3 Zrotation Yrotation Xrotation
			JOINT right_ankle
			{
				OFFSET 0.015417 -0.410728 -0.020192
				CHANNELS 3 Zrotation Yrotation Xrotation
				JOINT right_foot
				{
					OFFSET -0.038812 -0.058328 0.119049
					CHANNELS 3 Zrotation Yrotation Xrotation
					End Site
					{
						OFFSET 0.000000 0.000000 0.000000
					}
				}
			}
		}
	}
	JOINT spine_1
	{
		OFFSET -0.002763 0.109891 -0.027618
		CHANNELS 3 Zrotation Yrotation Xrotation
		JOINT spine_2
		{
			OFFSET 0.009448 0.131853 -0.005940
			CHANNELS 3 Zrotation Yrotation Xrotation
			JOINT spine_3
			{
				OFFSET -0.011330 0.052235 0.028447
				CHANNELS 3 Zrotation Yrotation Xrotation
				JOINT neck
				{
					OFFSET -0.012164 0.165167 -0.031615
					CHANNELS 3 Zrotation Yrotation Xrotation
					JOINT head
					{
						OFFSET 0.024783 0.160452 0.020737
						CHANNELS 3 Zrotation Yrotation Xrotation
						End Site
						{
							OFFSET 0.000000 0.000000 0.000000
						}
					}
				}
				JOINT left_collar
				{
					OFFSET 0.046364 0.084944 -0.007220
					CHANNELS 3 Zrotation Yrotation Xrotation
					JOINT left_shoulder
					{
						OFFSET 0.119239 0.057728 -0.015461
						CHANNELS 3 Zrotation Yrotation Xrotation
						JOINT left_elbow
						{
							OFFSET 0.254123 -0.072151 -0.042459
							CHANNELS 3 Zrotation Yrotation Xrotation
							JOINT left_wrist
							{
								OFFSET 0.251987 0.023221 -0.002472
								CHANNELS 3 Zrotation Yrotation Xrotation
								JOINT left_index_1
								{
									OFFSET 0.101902 -0.008688 0.019351
									CHANNELS 3 Zrotation Yrotation Xrotation
									JOINT left_index_2
									{
										OFFSET 0.030149 -0.011154 0.001151
										CHANNELS 3 Zrotation Yrotation Xrotation
										JOINT left_index_3
										{
											OFFSET 0.006504 -0.021577 -0.002433
											CHANNELS 3 Zrotation Yrotation Xrotation
											End Site
											{
												OFFSET 0.000000 0.000000 0.000000
											}
										}
									}
								}
								JOINT left_middle_1
								{
									OFFSET 0.109398 -0.006328 -0.003981
									CHANNELS 3 Zrotation Yrotation Xrotation
									JOINT left_middle_2
									{
										OFFSET 0.026472 -0.015218 -0.004641
										CHANNELS 3 Zrotation Yrotation Xrotation
										JOINT left_middle_3
										{
											OFFSET 0.005022 -0.023347 -0.001911
											CHANNELS 3 Zrotation Yrotation Xrotation
											End Site
											{
												OFFSET 0.000000 0.000000 0.000000
											}
										}
									}
								}
								JOINT left_pinky_1
								{
									OFFSET 0.084047 -0.014539 -0.043750
									CHANNELS 3 Zrotation Yrotation Xrotation
									JOINT left_pinky_2
									{
										OFFSET 0.012124 -0.014448 -0.005375
										CHANNELS 3 Zrotation Yrotation Xrotation
										JOINT left_pinky_3
										{
											OFFSET 0.003798 -0.018853 0.000167
											CHANNELS 3 Zrotation Yrotation Xrotation
											End Site
											{
												OFFSET 0.000000 0.000000 0.000000
											}
										}
									}
								}
								JOINT left_ring_1
								{
									OFFSET 0.097444 -0.009268 -0.027345
									CHANNELS 3 Zrotation Yrotation Xrotation
									JOINT left_ring_2
									{
										OFFSET 0.023561 -0.016057 -0.001895
										CHANNELS 3 Zrotation Yrotation Xrotation
										JOINT left_ring_3
										{
											OFFSET 0.004257 -0.023548 0.000814
											CHANNELS 3 Zrotation Yrotation Xrotation
											End Site
											{
												OFFSET 0.000000 0.000000 0.000000
											}
										}
									}
								}
								JOINT left_thumb_1
								{
									OFFSET 0.040636 -0.017977 0.025611
									CHANNELS 3 Zrotation Yrotation Xrotation
									JOINT left_thumb_2
									{
										OFFSET 0.021637 -0.017639 0.011623
										CHANNELS 3 Zrotation Yrotation Xrotation
										JOINT left_thumb_3
										{
											OFFSET 0.024002 -0.008356 0.006548
											CHANNELS 3 Zrotation Yrotation Xrotation
											End Site
											{
												OFFSET 0.000000 0.000000 0.000000
											}
										}
									}
								}
							}
						}
					}
				}
				JOINT right_collar
				{
					OFFSET -0.047695 0.084339 -0.013400
					CHANNELS 3 Zrotation Yrotation Xrotation
					JOINT right_shoulder
					{
						OFFSET -0.102578 0.053524 -0.012669
						CHANNELS 3 Zrotation Yrotation Xrotation
						JOINT right_elbow
						{
							OFFSET -0.271150 -0.036492 -0.026467
							CHANNELS 3 Zrotation Yrotation Xrotation
							JOINT right_wrist
							{
								OFFSET -0.249267 -0.004533 -0.015325
								CHANNELS 3 Zrotation Yrotation Xrotation
								JOINT right_index_1
								{
									OFFSET -0.099881 -0.011783 0.019600
									CHANNELS 3 Zrotation Yrotation Xrotation
									JOINT right_index_2
									{
										OFFSET -0.030148 -0.011154 0.001151
										CHANNELS 3 Zrotation Yrotation Xrotation
										JOINT right_index_3
										{
											OFFSET -0.006505 -0.021577 -0.002432
											CHANNELS 3 Zrotation Yrotation Xrotation
											End Site
											{
												OFFSET 0.000000 0.000000 0.000000
											}
										}
									}
								}
								JOINT right_middle_1
								{
									OFFSET -0.107376 -0.009422 -0.003734
									CHANNELS 3 Zrotation Yrotation Xrotation
									JOINT right_middle_2
									{
										OFFSET -0.026472 -0.015218 -0.004641
										CHANNELS 3 Zrotation Yrotation Xrotation
										JOINT right_middle_3
										{
											OFFSET -0.005022 -0.023347 -0.001911
											CHANNELS 3 Zrotation Yrotation Xrotation
											End Site
											{
												OFFSET 0.000000 0.000000 0.000000
											}
										}
									}
								}
								JOINT right_pinky_1
								{
									OFFSET -0.082027 -0.017634 -0.043503
									CHANNELS 3 Zrotation Yrotation Xrotation
									JOINT right_pinky_2
									{
										OFFSET -0.012123 -0.014448 -0.005374
										CHANNELS 3 Zrotation Yrotation Xrotation
										JOINT right_pinky_3
										{
											OFFSET -0.003798 -0.018852 0.000167
											CHANNELS 3 Zrotation Yrotation Xrotation
											End Site
											{
												OFFSET 0.000000 0.000000 0.000000
											}
										}
									}
								}
								JOINT right_ring_1
								{
									OFFSET -0.095423 -0.012362 -0.027099
									CHANNELS 3 Zrotation Yrotation Xrotation
									JOINT right_ring_2
									{
										OFFSET -0.023561 -0.016057 -0.001895
										CHANNELS 3 Zrotation Yrotation Xrotation
										JOINT right_ring_3
										{
											OFFSET -0.004257 -0.023548 0.000816
											CHANNELS 3 Zrotation Yrotation Xrotation
											End Site
											{
												OFFSET 0.000000 0.000000 0.000000
											}
										}
									}
								}
								JOINT right_thumb_1
								{
									OFFSET -0.038613 -0.021074 0.025861
									CHANNELS 3 Zrotation Yrotation Xrotation
									JOINT right_thumb_2
									{
										OFFSET -0.021636 -0.017639 0.011623
										CHANNELS 3 Zrotation Yrotation Xrotation
										JOINT right_thumb_3
										{
											OFFSET -0.024004 -0.008353 0.006547
											CHANNELS 3 Zrotation Yrotation Xrotation
											End Site
											{
												OFFSET 0.000000 0.000000 0.000000
											}
										}
									}
								}
							}
						}
					}
				}
			}
		}
	}
}
MOTION
Frames: 4
Frame Time: 0.050000
0.007476 0.931108 -0.053528 0.452962 -2.055662 -7.551868 -0.670912 0.986179 6.396966 2.194471 0.239233 -3.351927 -0.090357 -0.102112 0.101616 0.000000 0.000000 0.000000 -10.649590 0.196429 8.461005 10.609021 -0.209795 -4.622896 0.351250 -0.306307 1.468546 0.000000 0.000000 0.000000 -4.064709 -0.430741 4.686473 -5.736048 1.237980 -6.801717 9.135289 -1.560020 16.785668 1.378250 -0.359159 0.720846 0.000000 0.000000 0.000000 -2.896999 -5.502973 2.651441 -49.755381 1.829608 -8.363072 -13.964199 -49.489472 11.975709 -5.136047 6.967206 -7.935617 -13.476405 0.426292 0.818903 2.729401 -0.825091 -2.412472 0.000000 0.000000 0.000000 -14.300762 -6.416088 -4.876671 -16.635604 -5.724574 -15.601478 0.000000 0.000000 0.000000 9.736601 -13.478005 -19.360893 -35.371392 -10.188712 -14.612799 0.000000 0.000000 0.000000 -15.072240 -8.125469 -5.111713 -22.515290 -11.328432 -20.252085 0.000000 0.000000 0.000000 33.503946 24.933873 13.069183 -23.643783 -9.679839 4.586709 0.000000 0.000000 0.000000 -0.974056 5.309685 2.829578 31.826869 17.342240 -1.524826 0.002053 25.820830 -0.589156 5.083146 0.020913 -8.994744 13.608736 -0.090918 0.657926 -8.429517 0.829420 -0.864710 0.000000 0.000000 0.000000 18.287752 7.131019 -5.441268 -8.215763 1.682589 -7.163969 0.000000 0.000000 0.000000 -3.180450 10.379763 -13.724922 -2.845161 0.593378 -2.620432 0.000000 0.000000 0.000000 17.023218 5.512126 -3.624240 -9.762692 2.213610 -17.895162 0.000000 0.000000 0.000000 -12.411486 -20.936690 14.426759 15.588464 10.275561 1.731643 0.000000 0.000000 0.000000 
0.001440 0.943519 -0.011292 2.278869 1.387315 -10.623884 -3.661273 0.609113 3.294947 4.392690 -2.298141 12.802239 -0.542677 -1.090455 0.013223 0.000000 0.000000 0.000000 -7.272217 -0.272450 7.543633 1.799393 0.088306 9.120490 -2.350524 -3.421618 -2.299944 0.000000 0.000000 0.000000 -6.238780 -0.544984 7.277281 -5.691188 1.254495 -7.143023 9.294416 -1.597462 21.921470 1.491948 -0.344532 0.452988 0.000000 0.000000 0.000000 -1.557023 -7.257985 3.511411 -51.774440 -11.971261 -6.977253 -16.315312 -42.821175 11.131380 -15.030295 6.857442 -0.036087 -41.295465 7.889462 1.284442 -36.737783 -0.467886 -5.188041 0.000000 0.000000 0.000000 -66.185307 -1.104795 -10.401429 6.687009 -3.631925 -15.840034 0.000000 0.000000 0.000000 -73.926701 -29.828849 -31.187228 35.803814 -0.939968 18.709066 0.000000 0.000000 0.000000 -70.204980 -18.540239 -6.313131 15.361004 0.467150 -6.932997 0.000000 0.000000 0.000000 27.746638 34.546869 41.627865 37.351318 -26.541904 -28.053283 0.000000 0.000000 0.000000 -0.815845 10.015793 5.175010 35.214298 21.384048 -0.605696 1.805291 26.811058 -0.178857 40.793273 5.932011 -0.749502 -147.093112 -49.106758 -124.432891 21.037096 68.328888 -94.570796 0.000000 0.000000 0.000000 125.377356 -18.966998 -26.393283 -79.632586 -24.555249 -83.391644 0.000000 0.000000 0.000000 36.164489 28.745494 -39.352143 -36.475141 0.995954 19.366346 0.000000 0.000000 0.000000 82.389262 25.476921 -7.144532 -83.001165 -5.681316 -0.262953 0.000000 0.000000 0.000000 -16.835456 -39.606526 56.835920 -50.117994 6.657859 -22.338398 0.000000 0.000000 0.000000 
-0.007982 0.930625 0.023026 1.882403 2.200487 -11.018322 -1.367666 0.615962 3.851049 2.350843 -2.469070 16.767240 1.303730 -1.568761 -4.891575 0.000000 0.000000 0.000000 -3.549496 -0.504452 6.347190 -2.370269 1.069094 16.594037 -4.850453 -5.874539 -7.817981 0.000000 0.000000 0.000000 -2.813914 -0.799434 13.964006 -6.162068 0.611843 -10.532883 3.920950 -2.614490 24.603832 2.568562 -0.080289 -2.326348 0.000000 0.000000 0.000000 3.243998 -10.506178 5.000626 -55.711900 -23.643133 -4.476711 -12.374064 -36.420401 8.001802 -13.608847 11.106159 7.762544 -170.619312 40.833009 -53.944806 68.621913 9.596018 -121.877079 0.000000 0.000000 0.000000 -124.294980 31.658272 -36.250405 39.911290 -1.747044 -49.558916 0.000000 0.000000 0.000000 -112.563858 34.896602 -32.968368 20.012968 -1.190617 -22.888955 0.000000 0.000000 0.000000 -115.229121 17.453285 -18.664822 40.006899 6.056765 -33.775969 0.000000 0.000000 0.000000 -7.457808 74.059738 94.448348 117.074156 32.636611 13.596928 0.000000 0.000000 0.000000 -8.561446 9.746327 4.980755 50.488516 26.993611 2.291444 13.036778 33.579908 2.755856 23.945660 4.243985 15.409837 -134.489191 -48.725619 -160.344374 41.632991 54.090316 -55.929128 0.000000 0.000000 0.000000 141.730492 -37.488933 -50.337970 -48.244979 2.553035 -93.897795 0.000000 0.000000 0.000000 90.688032 39.241503 -37.329258 -53.557172 3.595543 9.269176 0.000000 0.000000 0.000000 122.023621 26.528094 -2.066176 -113.401273 -0.884905 -8.109345 0.000000 0.000000 0.000000 -33.199559 -54.714130 98.288831 -82.360035 -2.649203 -37.125883 0.000000 0.000000 0.000000 
-0.008218 0.928691 0.005867 1.257287 1.546495 -6.655679 1.522035 0.205543 1.739677 -1.424621 -0.873836 10.001984 0.952409 -1.977865 -4.533684 0.000000 0.000000 0.000000 -2.862231 -0.627964 7.343251 -2.495462 0.372740 3.992163 -4.050377 -4.695444 -6.589340 0.000000 0.000000 0.000000 1.473016 -0.423900 6.417114 -7.268098 0.247962 -13.529529 1.974181 -3.001230 29.078191 1.670568 -0.279383 -0.374606 0.000000 0.000000 0.000000 -1.770231 -6.821357 3.354772 -52.700498 -24.045491 -4.801905 -18.246382 -35.540083 9.841373 -8.776869 7.078131 14.583373 -37.685449 27.115176 4.885681 -57.692142 17.228783 -1.338233 0.000000 0.000000 0.000000 -77.982538 31.786887 -18.456149 -7.143920 -3.305948 -12.815686 0.000000 0.000000 0.000000 -94.841298 35.640072 -32.631199 16.818020 1.158668 -10.298046 0.000000 0.000000 0.000000 -89.257223 23.037925 -17.062488 14.107577 -0.020319 -16.675260 0.000000 0.000000 0.000000 9.163279 30.832235 37.415320 42.103609 -12.800923 -23.697585 0.000000 0.000000 0.000000 -7.203344 13.024785 6.462770 54.409600 24.654408 1.593726 15.583243 39.505861 4.296411 -2.100498 -4.865918 10.102985 21.737632 -20.082872 4.615582 54.040720 -17.373884 5.509665 0.000000 0.000000 0.000000 46.134323 -8.538734 -6.923148 48.048861 -2.411019 -5.589641 0.000000 0.000000 0.000000 44.463305 34.962770 -31.832473 23.153461 -3.661719 5.966742 0.000000 0.000000 0.000000 44.288826 16.044211 -6.792338 44.823385 8.007264 -14.277042 0.000000 0.000000 0.000000 -20.539413 -36.722677 40.335579 -9.933036 26.121134 -13.533911 0.000000 0.000000 0.000000 
